<?xml version="1.0" encoding="UTF-8" standalone="no"?>
<svg
   xmlns:dc="http://purl.org/dc/elements/1.1/"
   xmlns:cc="http://creativecommons.org/ns#"
   xmlns:rdf="http://www.w3.org/1999/02/22-rdf-syntax-ns#"
   xmlns:svg="http://www.w3.org/2000/svg"
   xmlns="http://www.w3.org/2000/svg"
   xmlns:sodipodi="http://sodipodi.sourceforge.net/DTD/sodipodi-0.dtd"
   xmlns:inkscape="http://www.inkscape.org/namespaces/inkscape"
   width="197.7485mm"
   height="77.096092mm"
   viewBox="0 0 197.7485 77.096092"
   version="1.1"
   id="svg545"
   inkscape:version="1.0.2 (e86c8708, 2021-01-15)">
  <defs
     id="defs539" />
  <sodipodi:namedview
     id="base"
     pagecolor="#000000"
     bordercolor="#666666"
     borderopacity="1.0"
     inkscape:pageopacity="0"
     inkscape:pageshadow="2"
     inkscape:zoom="0.65224094"
     inkscape:cx="337.19949"
     inkscape:cy="218.44238"
     inkscape:document-units="mm"
     inkscape:current-layer="layer1"
     inkscape:document-rotation="0"
     showgrid="false"
     fit-margin-top="0"
     fit-margin-left="0"
     fit-margin-right="0"
     fit-margin-bottom="0"
     inkscape:window-width="1252"
     inkscape:window-height="723"
     inkscape:window-x="0"
     inkscape:window-y="23"
     inkscape:window-maximized="0" />
  <metadata
     id="metadata542">
    <rdf:RDF>
      <cc:Work
         rdf:about="">
        <dc:format>image/svg+xml</dc:format>
        <dc:type
           rdf:resource="http://purl.org/dc/dcmitype/StillImage" />
        <dc:title></dc:title>
      </cc:Work>
    </rdf:RDF>
  </metadata>
  <g
     inkscape:label="Layer 1"
     inkscape:groupmode="layer"
     id="layer1"
     transform="translate(-6.5954984,-88.421265)">
    <path
       style="fill:#ffffff;fill-opacity:1;stroke-width:0.264583"
       id="path495"
       d="m 10.852334,135.01002 c 6.003987,-3.24788 10.79695,-8.23632 15.526916,-13.06188 1.87785,-2.11713 3.40854,-3.77174 5.13819,-5.96923 0.5451,-0.69253 1.06262,-1.40707 1.56175,-2.13344 0.30266,-0.44044 0.62267,-0.87702 0.84186,-1.36442 0.0642,-0.14282 0.13402,-0.42859 -0.0171,-0.46948 -1.28491,-0.34757 -2.63165,-0.40197 -3.94747,-0.60295 -0.27894,-0.67701 -0.34853,-1.48537 -0.83679,-2.03103 -0.16288,-0.18201 -0.42152,0.26168 -0.58061,0.44701 -0.32762,0.38166 -0.56856,0.83007 -0.86466,1.23667 -1.37982,1.89477 -1.85839,2.39729 -3.33151,4.50824 -0.92484,1.32529 -1.80704,2.67984 -2.710562,4.01977 -1.071533,1.71887 -2.203799,3.40134 -3.2146,5.15661 -1.114575,1.93548 -2.15466,3.91409 -3.157995,5.9095 -1.904825,3.78828 -3.616399,7.56486 -5.036044,11.56033 -1.1439823,3.21964 -1.4076823,4.65896 -2.1389983,7.77368 -0.03189,0.64529 -0.181127,1.29547 -0.09568,1.93588 0.03252,0.24368 0.203036,0.51127 0.433594,0.5966 1.7773353,0.65777 3.5952413,1.24743 5.4601543,1.58459 0.270416,0.0489 0.484757,-0.27579 0.67332,-0.47568 0.369937,-0.39218 0.652818,-0.85822 0.985282,-1.28263 0.463662,-0.5919 0.935345,-1.17746 1.403018,-1.76619 0.730029,-0.81897 1.406742,-1.68878 2.190088,-2.4569 8.482153,-8.31736 0.608891,0.33978 10.933483,-10.30719 4.00205,-4.127 10.26351,-11.28177 13.85305,-15.71499 2.02007,-2.49486 3.90704,-5.09461 5.86056,-7.64192 1.4974,-2.132 3.04846,-4.2273 4.49219,-6.396 0.26026,-0.39096 3.85067,-5.74153 4.0135,-7.38685 0.032,-0.32344 -0.53747,-0.3684 -0.82561,-0.51879 -5.39528,-2.815829 -3.40584,-3.453809 -6.48004,-1.516479 -0.6659,0.69469 -1.36138,1.362169 -1.99768,2.084069 -0.71313,0.80906 -1.35472,1.67862 -2.04744,2.50522 -0.86061,1.02691 -1.73306,2.04392 -2.61226,3.05496 -4.10484,4.72033 -4.6493,4.96843 -8.43384,10.5395 -1.61052,2.37079 -3.04711,4.85518 -4.57066,7.28277 -3.39655,6.59587 -6.60262,13.38734 -8.220854,20.6735 -0.429773,1.93507 -0.923689,4.99229 -0.439748,7.13239 0.114677,0.50713 0.488387,0.91805 0.732582,1.37707 1.98689,0.45696 3.92193,1.3783 5.96068,1.37088 0.62816,-0.002 0.89126,-0.89198 1.26458,-1.39717 1.01077,-1.36783 1.30585,-2.39852 2.17552,-3.88049 1.40389,-2.3923 1.90924,-2.81134 3.79341,-5.14004 1.16735,-1.2575 2.2896,-2.55841 3.50203,-3.77249 1.78497,-1.78739 3.73102,-3.41111 5.4861,-5.22786 1.96324,-2.03223 3.7916,-4.19078 5.66032,-6.31026 1.89271,-2.14668 3.77509,-4.30285 5.62354,-6.48776 2.98479,-3.52806 6.03215,-7.35643 8.93874,-10.97042 0.95627,-1.20032 1.94366,-2.37648 2.86881,-3.60094 0.51492,-0.68153 1.08822,-1.33932 1.44883,-2.11365 0.0743,-0.15951 -0.0876,-0.3925 -0.24728,-0.46639 -0.0278,-0.0128 -4.00866,-2.46488 -5.47897,-1.39016 -0.70907,0.51831 -1.22024,1.26362 -1.83036,1.89543 -8.55721,9.15896 -16.23411,19.19364 -22.16546,30.26671 -1.47983,2.76265 -2.71659,5.64877 -4.07488,8.47315 -0.81236,2.44903 -1.76113,4.85695 -2.43708,7.34708 -0.78896,2.90644 -1.52423,6.31063 -0.93993,9.38592 0.60557,3.18715 3.36811,4.14375 6.80181,4.24305 0.94738,0.0274 1.43677,-1.23645 2.15515,-1.85467 0.51289,-0.68893 1.04809,-1.36179 1.53867,-2.06677 1.41724,-2.03665 2.24384,-3.60786 3.78687,-5.61893 1.02791,-1.3397 2.14197,-2.61123 3.23366,-3.89949 2.01038,-2.37239 7.993,-9.24928 9.78177,-11.31023 1.88567,-2.22592 3.77135,-4.45183 5.65702,-6.67775 1.75323,-2.16166 3.47192,-4.35178 5.25967,-6.48498 1.62318,-1.93682 3.33389,-3.79883 4.97165,-5.72334 1.42713,-1.67699 4.76913,-5.63994 6.22393,-7.78432 0.32293,-0.47601 0.52947,-1.02134 0.7942,-1.53201 -1.07409,-0.0941 -2.14819,-0.18824 -3.22229,-0.28236 -0.6799,-0.67906 -1.10786,-1.80251 -2.0397,-2.03717 -0.58692,-0.14779 -0.96977,0.73397 -1.38437,1.17491 -0.68615,0.72972 -1.2947,1.52967 -1.90529,2.3237 -2.3271,3.02619 -2.70372,3.76329 -4.89059,7.12445 -1.01532,1.61138 -2.06915,3.19913 -3.04596,4.83413 -4.48341,7.50433 -8.72809,15.52385 -10.76091,24.08901 -0.35748,1.5062 -0.48149,3.05842 -0.72224,4.58763 0.043,1.02466 -0.0543,2.06496 0.12914,3.07398 0.50351,2.76958 3.36582,3.75448 6.14202,3.97213 0.823,0.0645 1.235,-1.09943 1.79746,-1.70369 0.86511,-0.92942 2.07306,-2.67685 2.79188,-3.67285 0.84758,-0.87865 1.73084,-1.72423 2.54275,-2.63594 0.99246,-1.11444 1.9066,-2.29626 2.86685,-3.43857 8.65599,-10.29718 -2.00052,2.52106 7.35148,-8.95231 7.01668,-8.60833 1.86287,-1.93128 8.47319,-10.72542 2.99103,-4.21665 3.45441,-4.79518 6.13139,-8.82059 0.60139,-0.9043 1.21146,-1.80394 1.77048,-2.73503 0.27476,-0.45764 0.75346,-0.89315 0.72797,-1.42633 -0.0127,-0.26487 -0.54528,0.15164 -0.79338,0.058 -1.35716,-0.51197 -2.62762,-1.22946 -3.94143,-1.84418 -0.21397,-0.0384 -0.46069,-0.23529 -0.6419,-0.11522 -0.39956,0.26477 -0.5988,0.74874 -0.88942,1.12992 -0.42029,0.55126 -0.77986,1.15149 -1.24312,1.66717 -0.81075,0.90248 -1.75588,1.67763 -2.56985,2.57721 -1.00478,1.11047 -1.91602,2.30214 -2.88119,3.44719 -1.26869,1.50512 -2.54689,3.00218 -3.82034,4.50327 -3.14726,4.19511 -4.92132,6.31198 -7.58286,10.8643 -1.01379,1.734 -1.92191,3.53073 -2.76831,5.35231 -1.16451,2.50618 -2.31153,5.33212 -2.67232,8.12272 -0.0974,0.75301 0.0475,1.51782 0.0712,2.27674 1.09423,3.17737 0.54397,3.29634 6.37048,3.11319 0.80635,-0.0253 1.2925,-0.96805 1.90243,-1.49609 0.88058,-0.76234 1.71251,-1.57912 2.56564,-2.37206 5.27258,-4.90057 2.9641,-2.71582 8.98216,-8.69465 7.9958,-8.55943 4.91973,-5.14356 13.19377,-14.55095 2.60266,-2.95917 5.28718,-5.84922 7.78968,-8.89357 3.75311,-4.56576 9.05851,-11.7951 12.41472,-16.84253 1.31557,-1.97848 2.49508,-4.04414 3.74262,-6.066199 -2.40191,1.715399 3.39104,-4.2979 1.78798,-5.16098 -1.54754,-0.83319 -3.35173,-1.09082 -5.0788,-1.4169 -0.5142,-0.0971 -1.14193,-0.14972 -1.56134,0.1632 -1.05724,0.78879 -4.96684,6.35851 -5.32024,6.84283 -4.18586,6.181999 -8.41733,12.345219 -12.36166,18.686349 -1.63785,2.63311 -3.22069,5.30043 -4.78349,7.97876 -1.63165,2.7963 -3.31674,5.56585 -4.79921,8.44402 -1.34148,2.60445 -2.44313,5.32561 -3.6647,7.98841 -1.87955,5.16198 -2.81987,6.88808 -3.677,12.00219 -0.34203,2.04073 -0.47918,3.52063 0.19569,5.39248 0.32622,0.90482 0.28235,2.33637 1.20014,2.62406 1.71963,0.53901 3.5847,-0.37496 5.37705,-0.56244 0.93929,-1.08042 1.13526,-1.17602 1.79515,-2.43238 0.19609,-0.37334 0.32576,-0.77805 0.49845,-1.16276 0.18167,-0.40471 0.31753,-0.83668 0.5645,-1.20519 0.96768,-1.44393 3.20795,-3.42014 4.20729,-4.39261 7.66248,-8.36478 14.63374,-17.36458 21.06318,-26.7067 0.83012,-1.20619 7.69338,-11.73019 8.91086,-13.59462 -0.27944,-2.60414 3.20619,-3.91604 3.62961,-6.30333 0.0442,-0.24913 -0.5166,0.08 -0.75903,0.008 -1.30802,-0.3909 -2.50028,-1.20858 -3.85388,-1.38607 -0.43481,-0.057 -0.80225,0.40627 -1.08915,0.73792 -0.63437,0.73334 -1.08809,1.60528 -1.63214,2.40792 -3.04656,4.35832 -6.25004,8.60983 -9.1216,13.08929 -2.25483,3.51739 -5.10317,8.39985 -7.05968,12.09468 -1.03413,1.95295 -1.97421,3.95427 -2.96131,5.93139 -1.51647,3.64928 -2.64635,5.86019 -3.49788,9.63219 -0.37415,1.65737 -0.62495,3.51378 -0.0918,5.18693 0.27441,0.86108 0.27746,2.14077 1.11934,2.4694 1.65846,0.64736 3.56049,0.0348 5.34073,0.0523 0.44734,-0.44816 0.93225,-0.86173 1.34202,-1.34448 1.27082,-1.49712 0.92564,-1.47791 1.99837,-3.11948 0.40371,-0.61778 0.84689,-1.20969 1.30155,-1.79101 2.09928,-2.68408 2.65125,-3.12571 5.24645,-5.89768 1.44967,-1.67 2.88695,-3.35082 4.34901,-5.00998 1.96409,-2.22889 4.0375,-4.36332 5.92923,-6.65395 2.04315,-2.47398 3.97853,-5.03711 5.86771,-7.63058 3.21001,-4.40669 6.53913,-9.46049 9.30215,-14.19924 0.92551,-1.58731 1.73663,-3.2386 2.60494,-4.85789 0.38255,-0.93992 2.10485,-2.65902 0.5439,-3.27842 -1.92106,-0.76231 -4.31453,-2.76177 -6.10348,-0.89298 -0.75617,0.78992 -1.29106,1.76531 -1.93071,2.65221 -0.91145,1.26376 -1.81505,2.53316 -2.72257,3.79974 -4.02794,4.91188 -6.61863,7.85332 -10.24832,13.32396 -1.84209,2.77638 -3.5312,5.65391 -5.1676,8.55628 -2.87078,5.09168 -5.57368,10.46558 -7.62763,15.95472 -0.73248,1.95753 -1.22675,3.9961 -1.84012,5.99416 -0.22785,1.70844 -1.07363,4.66931 -0.0741,6.5347 0.72903,1.36054 1.29592,3.31768 2.79302,3.6935 2.46445,0.61866 5.06335,-1.86366 6.44895,-3.56589 0.52548,-0.64557 0.95004,-1.3671 1.42506,-2.05065 0.37943,-0.64426 0.72232,-1.31149 1.13828,-1.9328 1.24103,-1.85369 2.40404,-3.10643 3.83882,-4.86254 0.95721,-1.17159 1.91096,-2.34609 2.85102,-3.53147 3.3091,-4.17266 3.73602,-4.80001 7.05122,-9.20214 2.32944,-3.49659 4.9501,-6.7849 7.35867,-10.22454 1.02016,-1.45687 1.98698,-2.95044 2.96526,-4.43576 0.33434,-0.50763 3.00593,-4.59651 3.56775,-5.6476 0.16469,-0.30811 0.23879,-0.65666 0.35818,-0.98499 -6.47207,0.21593 -0.14312,0.79666 -4.93547,-2.01111 -0.30096,-0.17632 -0.65724,0.26143 -0.93122,0.4773 -0.66019,0.5202 -1.25935,1.11541 -1.84956,1.71382 -2.45975,2.49393 -3.6228,3.99534 -5.97828,6.78097 -4.96254,6.58346 -9.09006,13.49421 -11.3101,21.4966 -0.45811,1.65132 -0.83366,3.33161 -1.06421,5.02972 -0.19883,1.46441 -0.1466,2.95206 -0.21989,4.42809 0.38048,2.67083 0.26807,4.01106 1.62197,6.3091 0.42079,0.71424 0.93843,1.4041 1.59946,1.90434 0.77383,0.5856 1.64354,1.24171 2.61307,1.28352 3.25629,0.14041 4.04137,-0.98098 6.13602,-2.67429 1.09922,-0.9956 5.67264,-5.1294 6.18322,-5.64084 3.26304,-3.26851 7.00615,-7.64875 9.8917,-11.14552 4.90281,-5.9413 7.17432,-9.01949 11.91198,-15.19442 4.29276,-6.59572 9.31238,-12.78606 12.79031,-19.8895 0.52366,-1.06954 1.03759,-2.17033 1.27509,-3.33726 0.0757,-0.37188 -0.0422,-0.89598 -0.37726,-1.07418 -1.6844,-0.8958 -3.5795,-1.3213 -5.36925,-1.98195 -0.51421,0.13035 -1.09678,0.1036 -1.54261,0.39104 -0.8152,0.52557 -1.42631,1.31486 -2.1333,1.97889 -0.91451,0.85893 -1.83472,1.71212 -2.73112,2.58993 -2.22493,2.17881 -4.7412,4.75897 -6.79471,7.07505 -1.22683,1.3837 -2.39027,2.82232 -3.5854,4.23348 -1.18252,1.5184 -2.39091,3.017 -3.54757,4.55518 -1.47444,1.96079 -5.70457,7.8724 -7.03084,9.84629 -2.5539,3.80095 -4.16694,6.27454 -6.03714,10.4212 -0.64642,1.43325 -1.10912,2.94246 -1.66368,4.41369 -0.39675,2.18189 -0.95465,3.43898 -0.36657,5.53282 0.24525,0.87321 0.24079,2.14322 1.07479,2.49971 4.64627,1.98605 4.56705,0.85528 6.99133,-0.90901 0.45592,-0.3318 0.94408,-0.61689 1.41612,-0.92533 3.60415,-2.19362 7.37497,-4.16976 10.78881,-6.66306 5.09902,-3.72408 10.09657,-8.25509 14.50025,-12.73582 2.56683,-2.61174 4.94836,-5.39936 7.42254,-8.09904 4.59959,-5.84817 7.03261,-8.6121 10.9162,-14.6904 0.60754,-0.95088 3.81371,-6.06168 3.9482,-8.15815 0.0246,-0.38403 -0.47037,-0.64003 -0.80812,-0.82446 -1.76581,-0.96421 -3.63359,-1.72865 -5.45038,-2.59297 -0.72012,0.44802 -1.47541,0.84392 -2.16036,1.34406 -2.84157,2.07491 -5.16448,4.24578 -7.75476,6.66307 -4.05815,3.78713 -6.29842,5.93236 -10.04352,10.1068 -1.62127,1.80713 -3.1467,3.69799 -4.72005,5.54699 -3.41646,4.46568 -6.70789,9.18138 -8.56282,14.54807 -0.5744,1.66186 -1.09424,4.03173 -0.82935,5.86375 0.11374,0.78664 0.48561,1.51366 0.72841,2.2705 0.88201,0.74882 1.51804,1.98894 2.64603,2.24646 2.57676,0.5883 4.71467,-1.21089 6.4679,-2.66329 2.03279,-1.68399 0.67703,-0.60235 3.16494,-2.51855 8.56269,-6.478 16.01771,-14.3171 22.59659,-22.77898 1.58638,-2.04044 3.06671,-4.16117 4.60006,-6.24175 1.14749,-1.80626 2.37971,-3.5614 3.44247,-5.41878 0.41057,-0.71755 2.77824,-5.00511 2.63644,-6.64734 -0.0305,-0.3527 -0.56234,-0.44265 -0.88663,-0.58463 -6.90447,-3.022839 -4.4018,-3.674839 -8.7998,-0.22383 -1.21965,1.21568 -2.50712,2.36692 -3.65895,3.64704 -2.96483,3.29506 -5.94737,7.28084 -8.27594,11.02435 -2.98456,4.7981 -4.95274,8.66944 -6.76057,14.02902 -0.7871,2.33347 -1.27382,4.75771 -1.91073,7.13657 -0.2571,2.19793 -0.66218,4.38357 -0.77129,6.59379 -0.21159,4.28625 0.0324,9.43185 3.00707,12.89229 0.64959,0.75567 1.34872,1.69111 2.32801,1.87545 1.73429,0.32647 3.51707,-0.29608 5.2756,-0.44412 0.65924,-0.89462 1.40328,-1.73255 1.9777,-2.68384 1.01986,-1.68895 2.25069,-4.94612 2.94069,-6.68672 1.83033,-4.61715 1.75959,-4.57851 3.70926,-9.42129 0.74511,-1.8508 1.51033,-3.69345 2.26549,-5.54018 1.95854,-5.09265 4.1871,-10.0992 5.73011,-15.34348 0.30017,-1.02021 0.57153,-2.05272 0.748,-3.10142 0.0826,-0.49083 0.40988,-1.17723 0.0251,-1.49299 -0.34407,-0.28238 -0.82649,0.33078 -1.23974,0.49617 -1.52609,-0.58858 -2.96184,-1.51571 -4.57828,-1.76574 -0.41064,-0.0635 -0.58967,0.59089 -0.83122,0.929 -0.4355,0.60958 -0.8134,1.25884 -1.19316,1.90461 -1.08401,1.84327 -2.44153,4.38465 -3.35347,6.25367 -0.70383,1.4425 -1.35317,2.91095 -2.02976,4.36642 -1.57125,4.29448 -2.03153,5.14242 -3.06506,9.57854 -0.35629,1.52927 -0.69455,3.06849 -0.88034,4.62768 -0.25426,2.13381 -0.25336,4.46 0.30497,6.5647 0.16629,0.62686 0.51377,1.191 0.77065,1.78649 0.58112,0.68619 0.86265,1.87721 1.74337,2.05856 1.60561,0.33061 3.30766,-0.19525 4.86824,-0.69714 0.60386,-0.1942 0.93517,-0.85818 1.3785,-1.31184 1.72934,-1.76962 3.13634,-3.77843 4.58943,-5.77234 1.47463,-2.21798 2.85197,-4.52358 3.92796,-6.96558 0.0691,-0.15684 0.85881,-1.95822 0.72977,-2.48445 -0.0306,-0.12477 -0.2535,-0.0418 -0.38025,-0.0627 -1.65345,-0.67592 -3.22271,-1.61374 -4.96034,-2.02776 -0.30142,-0.0718 -0.45017,0.4356 -0.61143,0.70019 -1.0273,1.68562 -1.55514,3.75227 -1.82999,5.68421 -0.0995,0.69932 -0.11611,1.40794 -0.17416,2.1119 0.0512,1.51006 0.0329,3.21278 0.84008,4.5697 0.3732,0.62742 0.65793,1.41928 1.30368,1.75976 2.51119,1.32404 3.09355,0.93042 5.15246,0.42333 1.76977,-0.47339 3.55412,-1.14687 4.98027,-2.33621 0.97596,-0.8139 1.06502,-1.09497 1.76326,-2.12103 0.56463,-1.54967 0.37254,-0.72852 0.53835,-2.47201 0.026,-0.40102 -5.64532,-0.76835 -5.6713,-0.36732 v 0 c 0.0683,-0.54411 0.22908,-0.47843 -0.0721,-0.51599 -1.44473,0.96302 -3.10031,1.5181 -4.61481,2.35316 -0.80895,0.81059 0.21242,-0.31987 2.15729,1.0414 0.32173,0.22519 0.22426,0.7689 0.45483,1.0868 0.0584,0.0805 0.11602,-0.16589 0.14385,-0.26136 0.0916,-0.3141 0.14647,-0.63781 0.21174,-0.95841 0.10166,-0.49933 0.19268,-1.00076 0.28902,-1.50113 0.33272,-2.28639 0.60796,-4.57507 0.60647,-6.89028 -2.3e-4,-0.36396 0.24564,-0.8686 -0.0424,-1.09104 -1.44459,-1.11555 -3.19648,-1.76287 -4.79472,-2.64431 -0.27183,0.11946 -0.55916,0.20851 -0.81549,0.35836 -0.99342,0.58076 -1.58264,1.18063 -2.34346,2.09868 -1.71792,2.07295 -3.03215,4.44334 -4.31776,6.79486 -0.39045,0.7952 -0.77886,1.59142 -1.17136,2.38561 -0.45294,0.91649 -1.32048,2.59376 -1.72997,3.59818 -0.11972,0.29366 -0.58093,0.7909 -0.28597,0.90737 5.40853,2.13566 2.39686,-1.46766 4.75894,2.06356 0.18499,-0.22792 0.41681,-0.42477 0.55499,-0.68376 0.68149,-1.27732 1.61655,-3.99293 1.98512,-5.15513 0.42837,-1.35075 0.77447,-2.72635 1.18405,-4.08292 3.27773,-10.8564 -0.4779,2.03543 2.7423,-9.1303 0.3662,-1.47287 0.7324,-2.94574 1.0986,-4.41862 0.32878,-1.24913 0.66944,-2.49519 0.98633,-3.74738 0.37693,-1.48945 1.05714,-4.17342 1.22806,-5.78183 0.0802,-0.75517 0.51675,-1.67733 0.0517,-2.27769 -1.1584,-1.49537 -2.99809,-2.30729 -4.49714,-3.46094 -1.83627,0.68835 -2.75572,0.83719 -4.25809,2.23716 -2.11759,1.97326 -3.8984,4.73339 -5.23757,7.22851 -2.3817,4.43755 -3.06355,6.84363 -4.80311,11.60068 -0.55776,2.03542 -1.17987,4.0543 -1.6733,6.10626 -0.80423,3.34444 -1.41961,6.90364 -1.80331,10.33016 -0.0462,0.41303 -0.46348,5.02728 -0.26851,6.03274 0.0458,0.23638 0.36022,0.3196 0.54034,0.47939 1.19579,0.21333 2.41972,0.30531 3.58737,0.63999 0.25435,0.0729 0.38352,0.7389 0.5706,0.5518 0.33767,-0.33772 0.20088,-0.93405 0.28215,-1.40465 0.73585,-4.26123 1.19339,-8.58076 2.71912,-12.66828 0.71018,-1.95488 1.34473,-3.93892 2.13056,-5.86464 0.86262,-2.11392 1.84541,-4.17715 2.81136,-6.24591 2.35878,-5.05177 3.72516,-7.6333 6.19746,-12.58285 0.90571,-1.81323 1.84242,-3.61167 2.70276,-5.44686 0.70418,-1.50208 1.32627,-3.04128 1.9894,-4.56192 0.33595,-1.10919 1.43038,-2.24838 1.00787,-3.32757 -0.97245,-2.48383 -3.05948,-5.870249 -6.03013,-4.969299 -2.38459,0.72321 -5.00805,2.834119 -6.71741,4.353949 -1.68126,1.49483 -3.1991,3.16393 -4.79865,4.74589 -4.59637,5.46997 -5.88071,6.73185 -9.96873,12.69745 -2.80608,4.09486 -5.05037,7.9793 -7.43065,12.29918 -0.76856,1.39481 -1.47633,2.82235 -2.23054,4.22497 -0.50383,0.93697 -1.02895,1.86234 -1.54342,2.7935 -0.98364,1.43753 -0.9576,1.56992 -2.07103,2.66907 -0.28572,0.28205 -0.61134,0.52129 -0.90133,0.79896 -0.19633,0.18799 -0.80012,0.47688 -0.55604,0.5965 4.05798,1.98873 0.44194,-2.4619 3.44715,2.25114 0.10532,0.20681 0.0898,0.67251 0.31596,0.62043 0.41775,-0.0962 0.61682,-0.59573 0.91486,-0.90384 0.61249,-0.6332 1.21132,-1.27947 1.81639,-1.91976 3.62242,-3.83323 7.33078,-7.58336 10.87587,-11.48961 1.59242,-1.80896 3.22229,-3.58563 4.77726,-5.42687 3.51472,-4.16179 5.63898,-6.87413 8.65008,-11.36858 2.0627,-3.07884 3.72545,-5.74395 5.10214,-9.15234 0.4102,-1.01559 0.63768,-2.09573 0.95652,-3.14359 -1.49876,-1.56271 -2.69482,-3.486849 -4.49628,-4.688139 -1.37698,-0.91823 -5.89169,1.38498 -6.31981,1.632049 -1.88251,1.08639 -3.66383,2.35514 -5.3545,3.72106 -5.83303,4.71262 -8.20029,7.69072 -13.42803,13.30461 -6.70828,8.52512 -6.41235,7.82726 -12.32769,16.55658 -1.51072,2.22939 -2.93596,4.51553 -4.40394,6.7733 -0.96564,1.641 -1.84241,3.33764 -2.89693,4.92299 -1.06642,1.60324 -2.60753,3.14671 -3.93164,4.55497 -0.44555,0.55216 -0.94129,1.06733 -1.33664,1.65648 -0.19547,0.29129 -0.7185,0.7768 -0.4219,0.96411 1.23052,0.77708 2.9297,0.57726 4.14073,1.38436 0.53374,0.35571 0.0896,1.50294 0.65262,1.81018 1.29818,0.70839 2.40534,-4.8359 3.20758,-3.06518 0.89019,-1.20316 1.81521,-2.38131 2.67057,-3.60947 3.3088,-4.75083 6.13788,-9.80281 9.33014,-14.62841 1.03354,-1.56235 2.11638,-3.09171 3.19924,-4.62029 1.05818,-1.49376 2.149,-2.96413 3.2235,-4.44619 2.99377,-4.02443 6.03009,-8.02801 8.79272,-12.21778 1.02912,-1.56076 3.0175,-4.59559 3.65933,-6.49157 0.3683,-1.08797 0.45469,-2.2518 0.68204,-3.3777 -1.7508,-1.20082 -3.27523,-2.82911 -5.25241,-3.602459 -1.71258,-0.66987 -6.26232,2.124979 -6.93131,2.596229 -6.94301,4.89082 -11.93702,11.93865 -16.98992,18.60983 -1.80426,2.82191 -3.67481,5.60251 -5.41278,8.46573 -2.94931,4.85887 -5.7337,10.01278 -8.28671,15.09835 -0.95954,1.91139 -1.90618,3.83098 -2.76784,5.78844 -0.62665,1.42356 -1.10857,2.90678 -1.69406,4.34776 -0.32579,0.80182 -0.69284,1.58625 -1.03926,2.37938 -0.65783,2.02374 -0.4153,0.20932 1.8912,1.09062 0.45544,0.17402 0.61463,0.76035 0.96638,1.09796 0.034,0.0326 0.12607,0.006 0.13536,-0.0405 0.0819,-0.40695 0.0567,-0.82942 0.12221,-1.23932 0.12056,-0.75396 0.29034,-1.49922 0.43551,-2.24883 0.32535,-1.03752 0.59838,-2.09293 0.97606,-3.11257 1.7515,-4.72863 4.29499,-9.07118 6.60922,-13.53209 0.93157,-1.7957 1.84079,-3.60296 2.74518,-5.4125 0.84246,-1.68564 1.66352,-3.3819 2.49528,-5.07284 1.40501,-3.02348 2.42884,-5.0787 3.6086,-8.11414 0.94216,-2.42409 2.89278,-7.01367 -0.16197,-9.09388 -1.16253,-0.79166 -2.80999,-0.12976 -4.21498,-0.19465 -0.79906,0.23916 -1.64126,0.36491 -2.39717,0.71746 -2.48315,1.1581 -4.86427,3.09559 -6.79956,4.95966 -1.41578,1.36367 -2.77194,2.79619 -4.01782,4.31665 -3.14608,3.83946 -4.76367,6.72162 -7.38079,10.90802 -2.89522,5.30364 -2.87839,5.07171 -5.32988,10.28939 -1.11437,2.37179 -2.12864,4.78973 -3.24122,7.16237 -0.37136,0.79196 -0.7181,1.59775 -1.14595,2.36068 -0.36427,0.64955 -0.81702,1.24535 -1.22553,1.86803 -0.34872,0.63278 -0.72745,1.24993 -1.04617,1.89835 -0.2698,0.5489 -1.1599,1.26706 -0.71707,1.68895 0.70895,0.67542 2.14305,-0.20818 2.91014,0.4004 1.09623,0.86971 1.01413,2.78358 2.1439,3.60926 1.57603,1.15183 4.05345,-6.06365 4.55758,-3.67747 1.31205,-1.62768 2.69688,-3.19928 3.93615,-4.88304 3.49358,-4.74662 6.72826,-9.89392 9.54853,-15.05768 3.45084,-6.31828 5.60134,-10.9178 7.92476,-17.69585 0.80408,-2.34572 1.35415,-4.77096 2.03122,-7.15644 0.67393,-2.23668 1.86041,-5.77038 2.20373,-8.2237 0.16079,-1.14899 0.83339,-2.51325 0.1854,-3.47561 -2.25605,-3.350609 -4.74614,-4.371049 -8.0928,-3.291109 -1.4107,0.45522 -2.67227,1.28379 -4.00841,1.92568 -1.69151,1.348659 -3.50463,2.557529 -5.07454,4.045979 -4.19739,3.9796 -8.17957,9.06132 -11.36745,13.83436 -1.81645,2.71967 -3.53283,5.51414 -5.05784,8.4073 -1.47902,2.80593 -4.72147,10.67538 -6.14665,14.07217 -0.56508,1.51782 -1.13792,3.03277 -1.69523,4.55346 -0.38342,1.04622 -1.34993,3.85397 -1.861,5.07451 -0.10353,0.24724 -1.093,2.25321 -1.22123,2.58697 -0.0964,0.25093 -0.13409,0.52063 -0.20114,0.78094 1.38769,0.37241 2.77538,0.74482 4.16306,1.11724 0.24397,0.64276 0.14994,1.56227 0.73191,1.92829 0.38114,0.2397 0.78778,-0.45532 1.10978,-0.77003 0.67924,-0.66388 1.28618,-1.40037 1.87407,-2.14635 2.30877,-2.92963 3.60939,-5.0549 5.73292,-8.25355 2.69247,-4.53375 4.29986,-7.10106 6.75824,-11.82639 2.09038,-4.01798 3.90468,-7.97585 5.64837,-12.15017 0.7176,-1.7179 1.41626,-3.44493 2.04829,-5.19612 0.52288,-1.44877 0.94312,-2.93256 1.41468,-4.39884 0.24461,-1.15697 1.52365,-5.98525 0.77184,-7.26472 -1.0033,-1.70749 -2.6767,-3.06182 -4.4578,-3.92772 -1.91174,-0.929419 -6.45628,0.81632 -7.82823,1.54442 -1.85118,0.98241 -3.48252,2.33239 -5.22377,3.49858 -1.98672,1.93757 -4.10338,3.7503 -5.96016,5.81273 -8.49135,9.43181 -14.56021,20.67909 -19.0799,32.47042 -0.73675,1.92211 -1.33453,3.89465 -2.00179,5.84198 -0.30275,1.36554 -0.60085,2.73211 -0.90823,4.09661 -0.14981,0.66499 -0.26355,1.34006 -0.46331,1.99179 -0.41092,1.34061 -1.70122,2.39605 -1.94967,3.83847 14.05104,2.53912 -1.30951,-1.49376 5.23199,3.08994 0.41541,0.29109 0.94827,-0.4011 1.33665,-0.72739 0.83734,-0.70351 1.58432,-1.5121 2.30647,-2.33342 3.3645,-3.82657 4.33205,-5.51732 7.45783,-9.97986 1.53065,-2.5063 3.16482,-4.95225 4.59195,-7.51891 1.55994,-2.80551 2.9312,-5.71203 4.36245,-8.58533 1.37824,-2.76689 2.76381,-5.53107 4.06574,-8.33468 3.12343,-6.72609 5.89907,-13.61591 8.56158,-20.53457 0.6097,-1.82391 2.27253,-6.450409 2.59985,-8.597779 0.20517,-1.34599 1.00912,-2.98437 0.20037,-4.07969 -2.22626,-3.015135 -5.8577,-3.817892 -9.07704,-2.733479 -1.77152,0.596728 -3.35877,1.642009 -5.03815,2.463009 -2.14717,1.64305 -4.42397,3.12928 -6.4415,4.92913 -5.0144,4.473409 -10.69321,10.926779 -14.64324,16.257419 -2.34968,3.17093 -4.41905,6.54093 -6.56043,9.85609 -5.57846,8.63624 -5.21299,8.28575 -9.96281,16.80341 -2.186,4.64348 -3.23625,6.63607 -4.99952,11.12463 -0.36892,0.93914 -0.70518,1.8922 -0.99755,2.85793 -0.13465,0.44477 -0.63836,1.06835 -0.28106,1.36548 7.20308,5.98987 3.25323,0.0738 5.17777,3.12256 0.47452,-0.36301 0.99657,-0.67114 1.42354,-1.08903 1.6652,-1.62981 3.84319,-4.50197 5.12385,-6.23809 3.75159,-5.08579 7.13494,-10.42537 10.07742,-16.02159 0.83103,-1.74077 1.65564,-3.48463 2.49308,-5.22233 0.6651,-1.38011 1.42824,-2.71563 2.01453,-4.13103 0.47664,-1.15069 0.74656,-2.3772 1.16696,-3.54961 0.33695,-0.93968 1.29992,-2.96411 1.51666,-3.9979 0.1746,-0.83281 0.18063,-1.69222 0.27094,-2.53833 -1.37802,-1.10999 -2.53176,-2.5792 -4.13406,-3.32996 -0.75124,-0.35198 -1.67099,0.0396 -2.478,0.23188 -2.37423,0.56583 -4.33282,1.80638 -6.25552,3.29173 -3.91519,3.02461 -5.01282,4.60616 -8.43341,8.38544 -1.40556,1.86863 -2.89493,3.67707 -4.21668,5.60589 -1.18617,1.73098 -5.63427,9.12748 -6.81949,11.1881 -0.78032,1.35666 -3.99366,7.17044 -4.75918,8.8588 -0.53245,1.17433 -0.91519,2.41095 -1.37278,3.61643 -0.17865,0.43301 -1.41721,3.21975 -1.44279,3.97188 -0.007,0.21328 0.2565,0.35486 0.43828,0.46665 0.0409,0.0251 4.01628,3.91756 5.72256,2.31006 0.66322,-0.62482 1.12286,-1.43534 1.68429,-2.15301 0.7477,-1.24985 1.54624,-2.47067 2.2431,-3.74957 1.6503,-3.02865 4.07718,-8.14972 5.37311,-11.22636 0.88487,-2.10073 1.65594,-4.24762 2.47747,-6.37393 2.32826,-6.02607 1.99501,-5.18011 4.13382,-10.9047 0.56146,-1.35581 1.12293,-2.71162 1.6844,-4.06743 0.4965,-1.15478 1.0049,-2.30452 1.4895,-3.46435 1.1575,-2.7703 3.62552,-7.79286 0.59616,-10.50145 -1.20358,-1.07614 -3.17889,-0.56693 -4.76833,-0.8504 -1.15507,0.20518 -2.35773,0.22855 -3.46522,0.61553 -3.82441,1.3363 -7.44654,3.8219 -10.4785,6.41072 -2.14112,1.82818 -4.11819,3.84596 -6.04699,5.8969 -6.05599,6.43945 -6.09244,7.0883 -11.13884,14.40207 -1.36144,2.48325 -2.8211,4.91512 -4.08432,7.44975 -2.01598,4.04504 -3.15845,7.22653 -4.65711,11.37431 -0.51273,1.41906 -1.49394,4.34116 -2.08353,5.90665 -0.22484,0.597 -0.47679,1.18343 -0.71519,1.77515 0.32669,2.59185 -0.0607,1.45005 4.70473,3.7719 0.33205,0.16179 0.80375,0.14011 1.1057,-0.0726 1.66686,-1.17425 4.67337,-5.50805 5.44465,-6.6139 1.43428,-2.05644 2.77674,-4.17542 4.16511,-6.26313 1.49137,-2.66495 3.04588,-5.29554 4.47411,-7.99485 5.70747,-10.78697 10.3358,-22.08033 14.86399,-33.39805 0.33233,-0.99147 2.13925,-5.48976 1.36607,-6.72049 -1.98955,-3.166969 -4.42652,-4.192509 -7.61273,-3.557649 -1.32017,0.26304 -2.6197,0.69013 -3.83106,1.277189 -1.71502,0.83115 -3.26415,1.96819 -4.89622,2.95228 -1.8715,1.51257 -3.8344,2.91858 -5.61452,4.53771 -4.54982,4.13836 -7.93499,8.02562 -11.58634,12.99782 -1.71822,2.33977 -3.3804,4.73126 -4.83236,7.24494 -1.47098,2.54663 -4.27513,8.96969 -5.64746,12.04306 -0.47563,1.26924 -0.96911,2.53193 -1.42691,3.80772 -0.67869,1.89138 -1.00636,2.99755 -1.57668,4.82852 -0.17129,0.54989 -0.38794,1.08768 -0.51377,1.64972 -0.0892,0.39832 -0.4573,0.97632 -0.12822,1.2178 1.5433,1.1325 3.45095,1.65778 5.17642,2.48667 0.32753,0.005 0.70604,0.19165 0.98259,0.0161 1.37681,-0.87409 3.73476,-4.31189 4.34771,-5.22369 4.03482,-6.00199 7.30653,-12.46793 10.41892,-18.98195 4.31614,-10.18334 1.95097,-4.47364 5.75439,-13.90791 0.66541,-1.65052 1.23677,-3.34258 2.00252,-4.949 1.56011,-3.27283 2.09829,-3.19446 3.81144,-6.20852 0.53469,-0.94071 0.94994,-1.94446 1.42491,-2.91669 0.253,-0.98086 1.19781,-2.02958 0.759,-2.942559 -1.80824,-3.76228 -3.69215,-5.28749 -7.18699,-4.5138 -3.43496,0.76043 -6.58246,2.8262 -9.3071,4.90525 -2.26532,1.728559 -4.31863,3.718559 -6.47794,5.577839 -2.33507,2.47588 -4.81238,4.82494 -7.00521,7.42763 -4.24924,5.04346 -8.991079,11.85489 -12.171468,17.66686 -3.762482,6.8757 -3.428425,7.41998 -5.745208,13.96441 -0.395028,1.11588 -0.849842,2.20967 -1.2747633,3.31451 -0.503087,1.52258 -0.940025,2.59877 -1.194729,4.1415 -0.08175,0.49518 -0.53393,1.19883 -0.132327,1.49984 2.0048813,1.50269 4.3031553,3.31148 6.4688243,1.88837 0.63515,-0.41737 1.170342,-0.96993 1.755513,-1.45489 2.275549,-2.76234 3.063181,-3.55206 5.076575,-6.83918 3.355863,-5.47887 6.143543,-11.57709 8.248263,-17.64096 0.65998,-1.90143 1.1635,-3.85361 1.74524,-5.78042 2.45579,-10.35702 -0.0842,0.37041 1.7845,-7.55775 0.15178,-0.64394 0.28123,-1.29366 0.45835,-1.93109 0.10557,-0.37993 0.25623,-0.74587 0.3887,-1.11728 0.15218,-0.42668 0.45157,-0.82412 0.46522,-1.27693 0.0324,-1.07524 -0.21992,-2.14018 -0.32988,-3.21027 -1.43721,-0.33012 -2.8462,-0.8259 -4.31164,-0.99035 -0.84873,-0.0952 -2.96817,0.9578 -3.48605,1.24875 -3.338043,1.87537 -6.159946,4.49953 -8.838485,7.19976 -1.060413,1.17763 -2.158891,2.32207 -3.181239,3.5329 -1.785945,2.11519 -3.524725,4.46003 -5.0565343,6.77322 -0.699326,1.05606 -1.977725,3.15623 -2.58439,4.42906 -0.138145,0.28984 -0.21341,0.60565 -0.320115,0.90848 -0.265512,0.30016 3.9793843,4.05505 4.2448963,3.75489 z" />
    <path
       style="fill:#ffffff;fill-opacity:1;stroke-width:0.264583"
       id="path519"
       d="m 147.55225,121.95553 c 1.12044,-0.60902 2.03243,-1.60536 2.94076,-2.47762 0.60097,-0.57711 1.22721,-1.13016 1.79092,-1.74371 1.44818,-1.57623 2.28015,-2.79991 3.54422,-4.5143 1.09965,-1.64496 2.4075,-3.28166 3.01708,-5.20245 0.059,-0.18584 0.032,-0.38862 0.048,-0.58293 0.25705,-0.34329 -4.59766,-3.97848 -4.85471,-3.6352 v 0 c -0.33028,0.16626 -0.68047,0.29779 -0.99085,0.49879 -1.84113,1.1923 -3.24362,2.92803 -4.59686,4.61801 -0.55995,0.78077 -1.14962,1.54106 -1.67983,2.34232 -1.60258,2.4218 -2.83415,5.03127 -3.87554,7.73329 -0.20957,0.32929 4.44729,3.29309 4.65686,2.9638 z" />
    <path
       style="fill:#ffffff;fill-opacity:1;stroke-width:0.264583"
       id="path525"
       d="m 81.16423,119.79217 c 1.80603,-0.74092 3.40804,-1.87433 4.99927,-2.98427 0.92222,-0.64327 1.86463,-1.26051 2.74906,-1.95484 1.22241,-0.95966 4.35297,-3.79629 5.50122,-4.82426 1.90957,-1.86889 4.01849,-3.64768 5.45787,-5.93654 0.17445,-0.2774 0.50411,-0.5838 0.40453,-0.896 -0.0683,-0.21408 -0.44771,0.0393 -0.67156,0.0589 0.35007,-0.18026 -2.19917,-5.130989 -2.54924,-4.950729 v 0 c -0.86795,0.15419 -1.89552,0.29301 -2.7165,0.62829 -2.76903,1.130849 -5.05351,3.109509 -7.28934,5.038069 -1.74636,1.70044 -3.50551,3.34062 -5.10882,5.18111 -0.70171,0.80551 -1.33542,1.66786 -1.99562,2.50772 -1.04461,1.32888 -2.11786,2.65713 -2.95473,4.13202 -0.28288,0.29514 3.89098,4.29563 4.17386,4.0005 z" />
  </g>
</svg>
